<svg xmlns="http://www.w3.org/2000/svg" viewBox="0 0 24 24" width="24" height="24" fill="none" stroke="currentColor" stroke-width="1.6" stroke-linecap="round" stroke-linejoin="round">
  <!-- The oxilite quill as a graph, for the activity bar (monochrome, theme-colored) -->
  <path d="M3 21 L5 19 L9 15 L13 11 L17 7 L21 3"/>
  <path d="M9 15 L8 9.5 M13 11 L12 5.5 M17 7 L16.5 3.5 M9 15 L14 16 M13 11 L18 12.5 M17 7 L20.5 8"/>
  <path d="M8 9.5 L14 16" stroke-dasharray="1.6 1.8"/>
  <g fill="currentColor" stroke="none">
    <circle cx="8" cy="9.5" r="1.5"/><circle cx="12" cy="5.5" r="1.5"/><circle cx="16.5" cy="3.5" r="1.3"/>
    <circle cx="14" cy="16" r="1.5"/><circle cx="18" cy="12.5" r="1.5"/><circle cx="20.5" cy="8" r="1.3"/>
    <circle cx="21" cy="3" r="1.7"/>
  </g>
</svg>
